 <svg  version="1.0" xmlns="http://www.w3.org/2000/svg"  width="117.000000pt" height="124.000000pt" viewBox="0 0 117.000000 124.000000"  preserveAspectRatio="xMidYMid meet">  <g transform="translate(0.000000,124.000000) scale(0.100000,-0.100000)" fill="#000000" stroke="none"> <path d="M802 1214 c-126 -27 -366 -119 -472 -181 -3 -1 -20 25 -39 60 -59 109 -99 139 -150 112 -48 -24 -77 -132 -102 -375 -6 -63 -16 -126 -21 -140 -6 -14 -10 -53 -10 -87 -1 -81 19 -113 67 -113 45 0 53 17 67 133 9 72 17 101 39 132 29 43 96 111 102 104 2 -2 35 -64 73 -137 83 -159 115 -202 153 -202 43 0 67 25 101 107 54 131 96 207 161 292 75 100 99 114 134 81 90 -84 174 -542 146 -795 -13 -111 -40 -185 -68 -185 -10 0 -30 8 -43 17 l-25 17 19 -23 c14 -15 29 -21 50 -19 26 3 35 11 58 58 44 88 61 215 61 445 0 354 -55 549 -170 606 -76 37 -150 2 -243 -113 -50 -63 -127 -190 -155 -258 -10 -25 -21 -48 -25 -53 -6 -7 -130 221 -130 241 0 13 133 98 228 146 191 96 421 142 502 99 31 -16 36 -23 40 -68 5 -48 5 -49 12 -17 13 56 -15 99 -81 121 -45 15 -201 12 -279 -5z m-593 -213 l20 -38 -30 -22 -29 -22 0 23 c0 29 12 98 16 98 2 0 12 -17 23 -39z"/> </g> </svg> 